<?xml version="1.0" standalone="no"?>
<!DOCTYPE svg PUBLIC "-//W3C//DTD SVG 20010904//EN"
 "http://www.w3.org/TR/2001/REC-SVG-20010904/DTD/svg10.dtd">
<svg version="1.0" xmlns="http://www.w3.org/2000/svg"
 width="256.000000pt" height="256.000000pt" viewBox="0 0 256.000000 256.000000"
 preserveAspectRatio="xMidYMid meet">
<metadata>
Created by potrace 1.14, written by Peter Selinger 2001-2017
</metadata>
<g transform="translate(0.000000,256.000000) scale(0.100000,-0.100000)"
fill="#000000" stroke="none">
<path d="M395 2164 c-110 -29 -166 -63 -258 -159 -53 -55 -110 -163 -125 -240
-15 -68 -15 -870 -1 -955 33 -205 223 -396 425 -426 27 -5 416 -8 864 -8 877
0 841 -2 956 50 91 40 201 151 249 248 54 110 55 123 52 626 l-2 465 -26 68
c-45 113 -127 214 -229 278 -32 20 -125 55 -170 65 -19 4 -399 8 -845 9 -794
0 -811 0 -890 -21z m926 -693 c277 -141 355 -184 357 -200 3 -21 -31 -40 -353
-191 -44 -21 -142 -68 -219 -104 -76 -37 -146 -66 -155 -64 -14 3 -16 40 -19
358 -1 195 0 361 3 367 2 7 11 13 18 13 8 0 174 -81 368 -179z"/>
</g>
</svg>
